<?xml version="1.0" standalone="no"?>
<!DOCTYPE svg PUBLIC "-//W3C//DTD SVG 20010904//EN"
 "http://www.w3.org/TR/2001/REC-SVG-20010904/DTD/svg10.dtd">
<svg version="1.0" xmlns="http://www.w3.org/2000/svg"
 width="183.000000pt" height="183.000000pt" viewBox="0 0 183.000000 183.000000"
 preserveAspectRatio="xMidYMid meet">
<metadata>
Created by potrace 1.14, written by Peter Selinger 2001-2017
</metadata>
<g transform="translate(0.000000,183.000000) scale(0.100000,-0.100000)"
fill="#000000" stroke="none">
<path d="M359 1715 c-35 -19 -54 -67 -73 -190 -4 -20 -8 -41 -11 -45 -2 -4 -7
-22 -9 -41 -5 -39 -14 -80 -56 -274 -17 -77 -32 -153 -35 -168 -2 -15 -18 -91
-35 -168 -39 -181 -60 -289 -60 -316 0 -41 25 -53 111 -53 l79 0 -5 -38 c-5
-36 -11 -72 -21 -122 -15 -73 -6 -100 32 -107 11 -2 116 -3 234 -3 118 0 224
0 235 0 61 -3 218 2 233 8 31 11 63 164 38 179 -6 4 -112 8 -236 9 -124 0
-233 4 -243 9 -17 7 -17 8 0 22 10 8 12 12 5 8 -6 -3 -12 -2 -12 3 0 21 60 32
171 31 64 -1 122 2 128 5 34 21 60 140 40 178 -8 16 -26 18 -133 18 -136 0
-150 6 -144 57 l3 28 199 2 c202 2 251 6 241 22 -3 5 0 11 5 13 12 4 27 99 22
136 -4 24 7 23 -277 24 -66 0 -125 4 -131 9 -8 6 -9 20 -5 37 7 27 8 27 103
28 53 1 103 4 111 7 38 14 72 152 45 184 -7 9 -41 13 -109 13 -93 0 -99 1 -99
20 0 20 5 21 203 19 307 -2 292 -3 312 27 25 38 39 143 21 161 -4 4 -152 8
-329 9 -177 1 -330 2 -339 3 -21 1 -25 43 -5 58 7 6 106 10 245 10 187 0 236
3 247 14 16 16 43 113 41 144 -4 46 1 45 -364 45 -280 -1 -352 -4 -373 -15z"/>
<path d="M1296 692 c-3 -5 -7 -20 -10 -35 -2 -15 -7 -30 -9 -34 -3 -5 -8 -30
-11 -57 -4 -27 -9 -53 -12 -58 -8 -12 16 -39 28 -32 5 3 7 12 4 20 -3 7 -1 16
4 19 6 4 10 11 10 16 0 6 -6 7 -12 3 -10 -6 -10 -4 0 8 7 9 15 30 17 47 2 17
8 38 13 48 4 10 7 24 6 31 -1 6 -2 17 -3 22 -1 12 -18 13 -25 2z"/>
<path d="M977 615 c-21 -16 -33 -46 -33 -85 1 -26 7 -37 26 -47 17 -8 26 -9
31 -1 4 7 8 6 12 -3 4 -11 6 -11 6 -1 1 7 6 10 11 7 6 -3 10 0 10 9 0 10 -8
13 -29 10 -40 -7 -46 11 -26 74 7 22 19 26 65 22 21 -2 22 0 11 14 -15 18 -61
18 -84 1z"/>
<path d="M1125 619 c-24 -12 -47 -58 -42 -87 8 -56 74 -71 121 -27 15 14 25
25 22 25 -3 0 -2 10 3 23 9 23 -1 55 -23 69 -15 10 -57 9 -81 -3z m78 -49 c3
-11 -1 -27 -9 -34 -8 -8 -14 -19 -14 -24 0 -6 -7 -12 -15 -16 -21 -8 -58 31
-50 52 4 9 9 25 12 34 10 35 66 26 76 -12z"/>
<path d="M1373 619 c-30 -11 -51 -79 -34 -115 7 -16 17 -24 25 -21 8 3 17 3
20 -1 10 -9 46 -10 40 0 -3 4 4 8 14 8 14 0 25 12 36 40 19 48 18 59 -9 81
-22 18 -57 21 -92 8z m73 -54 c-2 -29 -29 -65 -50 -65 -38 0 -41 63 -4 92 29
21 55 8 54 -27z"/>
<path d="M1523 598 c-18 -31 -23 -101 -9 -115 3 -4 19 -6 36 -5 16 0 32 -3 35
-8 9 -15 -33 -31 -62 -24 -25 7 -27 6 -14 -9 24 -29 96 -18 108 17 4 11 6 24
5 27 0 3 6 28 14 54 25 84 22 90 -40 93 -51 2 -55 1 -73 -30z m84 -44 c-11
-36 -39 -60 -57 -49 -16 10 -12 72 6 79 8 3 13 10 9 16 -3 6 5 5 24 -1 28 -10
28 -12 18 -45z"/>
<path d="M1683 608 c18 -72 19 -127 3 -149 -20 -29 -20 -36 -1 -36 9 0 25 16
37 36 12 20 30 45 40 55 10 11 27 38 38 60 18 36 18 41 4 49 -18 10 -34 -6
-34 -35 0 -10 -4 -18 -10 -18 -5 0 -10 -9 -10 -20 0 -38 -18 -20 -30 30 -8 33
-17 50 -27 50 -11 0 -14 -7 -10 -22z"/>
<path d="M1720 345 c0 -7 -8 -18 -17 -24 -17 -9 -17 -11 2 -25 13 -10 15 -15
6 -16 -8 0 -11 -7 -8 -20 3 -11 1 -22 -3 -25 -5 -3 -7 -13 -5 -23 2 -9 4 -20
4 -23 1 -9 38 -18 45 -12 3 3 -1 15 -9 26 -10 14 -11 26 -4 44 5 14 7 28 4 33
-3 5 7 12 21 17 25 8 25 10 10 25 -9 9 -16 21 -16 27 0 6 -7 11 -15 11 -8 0
-15 -7 -15 -15z"/>
<path d="M1120 320 c-8 -5 -10 -10 -4 -10 10 0 14 -13 15 -54 0 -10 -12 -32
-27 -47 -25 -26 -26 -29 -8 -29 11 0 27 9 37 20 20 23 37 26 37 6 0 -20 26
-40 35 -26 4 6 3 16 -3 23 -21 28 -21 47 3 73 23 25 33 54 19 54 -10 0 -34
-28 -34 -39 0 -21 -29 -11 -42 14 -10 18 -17 22 -28 15z"/>
<path d="M1274 319 c-5 -8 -9 -18 -10 -24 -1 -5 -7 -32 -14 -60 -16 -69 -22
-105 -16 -105 20 0 33 14 29 31 -5 16 -1 19 28 16 36 -4 81 11 74 23 -3 5 2
11 11 14 9 4 14 13 10 21 -3 8 -2 15 3 15 17 0 -2 52 -25 66 -18 12 -27 13
-45 4 -17 -9 -23 -9 -29 0 -6 9 -9 9 -16 -1z m81 -38 c12 -38 -28 -97 -57 -86
-28 11 -11 90 20 98 29 8 31 7 37 -12z"/>
<path d="M1459 317 c-13 -7 -28 -27 -33 -45 -5 -17 -12 -32 -17 -32 -9 0 19
-60 29 -61 33 -5 69 -5 79 -2 21 8 4 22 -20 17 -28 -5 -60 16 -49 33 4 6 21
13 37 15 39 5 75 25 72 41 -6 32 -62 51 -98 34z m45 -22 c12 0 21 -25 9 -26
-4 0 -18 -2 -30 -5 -16 -3 -23 1 -23 11 0 8 5 15 11 15 5 0 7 5 3 12 -5 7 -3
8 7 2 8 -5 18 -9 23 -9z"/>
<path d="M1595 305 c-3 -16 -10 -41 -14 -55 -10 -35 -8 -70 4 -67 6 1 9 5 8
10 -2 4 1 7 5 7 4 0 8 9 9 20 3 36 28 75 51 78 12 2 22 7 22 12 0 13 -23 18
-47 9 -14 -5 -23 -4 -26 4 -3 7 -8 -1 -12 -18z"/>
</g>
</svg>
